<?xml version="1.0"?>
<svg xmlns="http://www.w3.org/2000/svg" xmlns:xlink="http://www.w3.org/1999/xlink" xmlns:svgjs="http://svgjs.com/svgjs" version="1.1" width="512" height="512" x="0" y="0" viewBox="0 0 496.002 496.002" style="enable-background:new 0 0 512 512" xml:space="preserve" class=""><g>
<g xmlns="http://www.w3.org/2000/svg">
	<g>
		<path d="M494.657,115.561l-32-48c-1.484-2.225-3.982-3.56-6.656-3.56h-184v-56c0-4.418-3.582-8-8-8h-32c-4.418,0-8,3.582-8,8v56    h-136c-4.418,0-8,3.582-8,8v96c0,4.418,3.582,8,8,8h136v24h-184c-2.674,0-5.172,1.335-6.656,3.56l-32,48    c-1.794,2.688-1.794,6.192,0,8.88l32,48c1.484,2.225,3.982,3.56,6.656,3.56h184v176c0,4.418,3.582,8,8,8h32c4.418,0,8-3.582,8-8    v-176h136c4.418,0,8-3.582,8-8v-96c0-4.418-3.582-8-8-8h-136v-24h184c2.674,0,5.172-1.335,6.656-3.56l32-48    C496.451,121.753,496.451,118.249,494.657,115.561z M240.001,16.001h16v48h-16V16.001z M256.001,480.001h-16v-168h16V480.001z     M400.001,216.001v80H44.281l-26.68-40l26.664-40H400.001z M240.001,200.001v-24h16v24H240.001z M451.737,160.001H96.001v-80    h355.72l26.68,40L451.737,160.001z" fill="#01c3a7" data-original="#000000" style="" class=""/>
	</g>
</g>
<g xmlns="http://www.w3.org/2000/svg">
</g>
<g xmlns="http://www.w3.org/2000/svg">
</g>
<g xmlns="http://www.w3.org/2000/svg">
</g>
<g xmlns="http://www.w3.org/2000/svg">
</g>
<g xmlns="http://www.w3.org/2000/svg">
</g>
<g xmlns="http://www.w3.org/2000/svg">
</g>
<g xmlns="http://www.w3.org/2000/svg">
</g>
<g xmlns="http://www.w3.org/2000/svg">
</g>
<g xmlns="http://www.w3.org/2000/svg">
</g>
<g xmlns="http://www.w3.org/2000/svg">
</g>
<g xmlns="http://www.w3.org/2000/svg">
</g>
<g xmlns="http://www.w3.org/2000/svg">
</g>
<g xmlns="http://www.w3.org/2000/svg">
</g>
<g xmlns="http://www.w3.org/2000/svg">
</g>
<g xmlns="http://www.w3.org/2000/svg">
</g>
</g></svg>
